<svg width="269" height="106" viewBox="0 0 269 106" fill="none" xmlns="http://www.w3.org/2000/svg">
<path d="M2.328 100V82.864H15.192V100H13.056V84.76H4.488V100H2.328ZM18.5387 87.136H20.7947L23.5787 94.456C23.7387 94.888 23.8827 95.304 24.0107 95.704C24.1547 96.104 24.2827 96.496 24.3947 96.88C24.5067 97.248 24.5947 97.608 24.6587 97.96H24.7547C24.8507 97.56 25.0027 97.04 25.2107 96.4C25.4187 95.744 25.6347 95.088 25.8587 94.432L28.4747 87.136H30.7547L25.2107 101.776C24.9067 102.576 24.5467 103.272 24.1307 103.864C23.7307 104.472 23.2347 104.936 22.6427 105.256C22.0667 105.592 21.3627 105.76 20.5307 105.76C20.1467 105.76 19.8107 105.736 19.5227 105.688C19.2347 105.656 18.9867 105.616 18.7787 105.568V103.888C18.9547 103.92 19.1627 103.952 19.4027 103.984C19.6587 104.016 19.9227 104.032 20.1947 104.032C20.6907 104.032 21.1147 103.936 21.4667 103.744C21.8347 103.568 22.1467 103.304 22.4027 102.952C22.6587 102.616 22.8747 102.216 23.0507 101.752L23.7227 100.048L18.5387 87.136ZM42.6291 88.912H38.4291V100H36.3411V88.912H32.1891V87.136H42.6291V88.912ZM50.8568 86.896C51.9608 86.896 52.9048 87.136 53.6888 87.616C54.4888 88.096 55.0968 88.776 55.5128 89.656C55.9448 90.52 56.1608 91.536 56.1608 92.704V93.976H47.3528C47.3848 95.432 47.7528 96.544 48.4568 97.312C49.1768 98.064 50.1768 98.44 51.4568 98.44C52.2728 98.44 52.9928 98.368 53.6168 98.224C54.2568 98.064 54.9128 97.84 55.5848 97.552V99.4C54.9288 99.688 54.2808 99.896 53.6408 100.024C53.0008 100.168 52.2408 100.24 51.3608 100.24C50.1448 100.24 49.0648 99.992 48.1208 99.496C47.1928 99 46.4648 98.264 45.9368 97.288C45.4248 96.296 45.1688 95.088 45.1688 93.664C45.1688 92.256 45.4008 91.048 45.8648 90.04C46.3448 89.032 47.0088 88.256 47.8568 87.712C48.7208 87.168 49.7208 86.896 50.8568 86.896ZM50.8328 88.624C49.8248 88.624 49.0248 88.952 48.4328 89.608C47.8568 90.248 47.5128 91.144 47.4008 92.296H53.9528C53.9528 91.56 53.8408 90.92 53.6168 90.376C53.3928 89.832 53.0488 89.408 52.5848 89.104C52.1368 88.784 51.5528 88.624 50.8328 88.624ZM77.8436 87.136V100H60.3956V87.136H62.5076V98.224H68.0516V87.136H70.1636V98.224H75.7316V87.136H77.8436ZM87.8861 86.896C88.9901 86.896 89.9341 87.136 90.7181 87.616C91.5181 88.096 92.1261 88.776 92.5421 89.656C92.9741 90.52 93.1901 91.536 93.1901 92.704V93.976H84.3821C84.4141 95.432 84.7821 96.544 85.4861 97.312C86.2061 98.064 87.2061 98.44 88.4861 98.44C89.3021 98.44 90.0221 98.368 90.6461 98.224C91.2861 98.064 91.9421 97.84 92.6141 97.552V99.4C91.9581 99.688 91.3101 99.896 90.6701 100.024C90.0301 100.168 89.2701 100.24 88.3901 100.24C87.1741 100.24 86.0941 99.992 85.1501 99.496C84.2221 99 83.4941 98.264 82.9661 97.288C82.4541 96.296 82.1981 95.088 82.1981 93.664C82.1981 92.256 82.4301 91.048 82.8941 90.04C83.3741 89.032 84.0381 88.256 84.8861 87.712C85.7501 87.168 86.7501 86.896 87.8861 86.896ZM87.8621 88.624C86.8541 88.624 86.0541 88.952 85.4621 89.608C84.8861 90.248 84.5421 91.144 84.4301 92.296H90.9821C90.9821 91.56 90.8701 90.92 90.6461 90.376C90.4221 89.832 90.0781 89.408 89.6141 89.104C89.1661 88.784 88.5821 88.624 87.8621 88.624ZM102.585 100.24C101.449 100.24 100.433 100.008 99.537 99.544C98.657 99.08 97.961 98.36 97.449 97.384C96.953 96.408 96.705 95.16 96.705 93.64C96.705 92.056 96.969 90.768 97.497 89.776C98.025 88.784 98.737 88.056 99.633 87.592C100.545 87.128 101.577 86.896 102.729 86.896C103.385 86.896 104.017 86.968 104.625 87.112C105.233 87.24 105.729 87.4 106.113 87.592L105.465 89.344C105.081 89.2 104.633 89.064 104.121 88.936C103.609 88.808 103.129 88.744 102.681 88.744C101.817 88.744 101.105 88.928 100.545 89.296C99.985 89.664 99.569 90.208 99.297 90.928C99.025 91.648 98.889 92.544 98.889 93.616C98.889 94.64 99.025 95.512 99.297 96.232C99.569 96.952 99.977 97.496 100.521 97.864C101.065 98.232 101.745 98.416 102.561 98.416C103.265 98.416 103.881 98.344 104.409 98.2C104.953 98.056 105.449 97.88 105.897 97.672V99.544C105.465 99.768 104.985 99.936 104.457 100.048C103.945 100.176 103.321 100.24 102.585 100.24ZM118.796 88.912H114.596V100H112.508V88.912H108.356V87.136H118.796V88.912ZM132.634 90.376C132.634 91.176 132.394 91.8 131.914 92.248C131.434 92.696 130.818 93 130.066 93.16V93.256C130.866 93.368 131.562 93.656 132.154 94.12C132.746 94.568 133.042 95.272 133.042 96.232C133.042 96.776 132.938 97.28 132.73 97.744C132.538 98.208 132.234 98.608 131.818 98.944C131.402 99.28 130.866 99.544 130.21 99.736C129.554 99.912 128.762 100 127.834 100H122.29V87.136H127.81C128.722 87.136 129.538 87.24 130.258 87.448C130.994 87.64 131.57 87.976 131.986 88.456C132.418 88.92 132.634 89.56 132.634 90.376ZM130.858 96.232C130.858 95.496 130.578 94.968 130.018 94.648C129.458 94.328 128.634 94.168 127.546 94.168H124.402V98.296H127.594C128.65 98.296 129.458 98.144 130.018 97.84C130.578 97.52 130.858 96.984 130.858 96.232ZM130.498 90.64C130.498 90.032 130.274 89.592 129.826 89.32C129.394 89.032 128.682 88.888 127.69 88.888H124.402V92.416H127.306C128.346 92.416 129.138 92.272 129.682 91.984C130.226 91.696 130.498 91.248 130.498 90.64ZM135.062 87.136H137.318L140.102 94.456C140.262 94.888 140.406 95.304 140.534 95.704C140.678 96.104 140.806 96.496 140.918 96.88C141.03 97.248 141.118 97.608 141.182 97.96H141.278C141.374 97.56 141.526 97.04 141.734 96.4C141.942 95.744 142.158 95.088 142.382 94.432L144.998 87.136H147.278L141.734 101.776C141.43 102.576 141.07 103.272 140.654 103.864C140.254 104.472 139.758 104.936 139.166 105.256C138.59 105.592 137.886 105.76 137.054 105.76C136.67 105.76 136.334 105.736 136.046 105.688C135.758 105.656 135.51 105.616 135.302 105.568V103.888C135.478 103.92 135.686 103.952 135.926 103.984C136.182 104.016 136.446 104.032 136.718 104.032C137.214 104.032 137.638 103.936 137.99 103.744C138.358 103.568 138.67 103.304 138.926 102.952C139.182 102.616 139.398 102.216 139.574 101.752L140.246 100.048L135.062 87.136ZM160.689 81.808C160.625 82.608 160.425 83.28 160.089 83.824C159.769 84.368 159.289 84.776 158.649 85.048C158.009 85.32 157.177 85.456 156.153 85.456C155.113 85.456 154.273 85.32 153.633 85.048C153.009 84.776 152.553 84.376 152.265 83.848C151.977 83.304 151.801 82.624 151.737 81.808H153.705C153.785 82.672 154.009 83.256 154.377 83.56C154.761 83.848 155.369 83.992 156.201 83.992C156.937 83.992 157.513 83.84 157.929 83.536C158.361 83.216 158.617 82.64 158.697 81.808H160.689ZM152.265 94.984C152.265 95.128 152.257 95.336 152.241 95.608C152.241 95.864 152.233 96.144 152.217 96.448C152.201 96.736 152.185 97.016 152.169 97.288C152.153 97.544 152.137 97.752 152.121 97.912L159.009 87.136H161.601V100H159.633V92.416C159.633 92.16 159.633 91.824 159.633 91.408C159.649 90.992 159.665 90.584 159.681 90.184C159.697 89.768 159.713 89.456 159.729 89.248L152.889 100H150.273V87.136H152.265V94.984ZM172.794 87.136H175.05L177.834 94.456C177.994 94.888 178.138 95.304 178.266 95.704C178.41 96.104 178.538 96.496 178.65 96.88C178.762 97.248 178.85 97.608 178.914 97.96H179.01C179.106 97.56 179.258 97.04 179.466 96.4C179.674 95.744 179.89 95.088 180.114 94.432L182.73 87.136H185.01L179.466 101.776C179.162 102.576 178.802 103.272 178.386 103.864C177.986 104.472 177.49 104.936 176.898 105.256C176.322 105.592 175.618 105.76 174.786 105.76C174.402 105.76 174.066 105.736 173.778 105.688C173.49 105.656 173.242 105.616 173.034 105.568V103.888C173.21 103.92 173.418 103.952 173.658 103.984C173.914 104.016 174.178 104.032 174.45 104.032C174.946 104.032 175.37 103.936 175.722 103.744C176.09 103.568 176.402 103.304 176.658 102.952C176.914 102.616 177.13 102.216 177.306 101.752L177.978 100.048L172.794 87.136ZM197.088 87.136V98.224H198.96V104.464H196.92V100H187.968V104.464H185.952V98.224H186.984C187.72 97.2 188.328 96.088 188.808 94.888C189.304 93.672 189.672 92.408 189.912 91.096C190.168 89.768 190.304 88.448 190.32 87.136H197.088ZM192.192 88.792C192.128 89.88 191.96 91.008 191.688 92.176C191.416 93.328 191.064 94.432 190.632 95.488C190.216 96.544 189.728 97.456 189.168 98.224H195.048V88.792H192.192ZM213.625 93.544C213.625 94.616 213.481 95.568 213.193 96.4C212.921 97.216 212.521 97.912 211.993 98.488C211.481 99.064 210.849 99.504 210.097 99.808C209.361 100.096 208.537 100.24 207.625 100.24C206.777 100.24 205.993 100.096 205.273 99.808C204.553 99.504 203.929 99.064 203.401 98.488C202.873 97.912 202.457 97.216 202.153 96.4C201.865 95.568 201.721 94.616 201.721 93.544C201.721 92.12 201.961 90.92 202.441 89.944C202.921 88.952 203.609 88.2 204.505 87.688C205.401 87.16 206.465 86.896 207.697 86.896C208.865 86.896 209.889 87.16 210.769 87.688C211.665 88.2 212.361 88.952 212.857 89.944C213.369 90.92 213.625 92.12 213.625 93.544ZM203.905 93.544C203.905 94.552 204.033 95.432 204.289 96.184C204.561 96.92 204.977 97.488 205.537 97.888C206.097 98.288 206.809 98.488 207.673 98.488C208.537 98.488 209.249 98.288 209.809 97.888C210.369 97.488 210.777 96.92 211.033 96.184C211.305 95.432 211.441 94.552 211.441 93.544C211.441 92.52 211.305 91.648 211.033 90.928C210.761 90.208 210.345 89.656 209.785 89.272C209.241 88.872 208.529 88.672 207.649 88.672C206.337 88.672 205.385 89.104 204.793 89.968C204.201 90.832 203.905 92.024 203.905 93.544ZM217.26 92.272C217.26 90.4 217.444 88.808 217.812 87.496C218.196 86.168 218.78 85.112 219.564 84.328C220.364 83.528 221.388 82.992 222.636 82.72C223.676 82.496 224.692 82.296 225.684 82.12C226.676 81.944 227.604 81.784 228.468 81.64L228.828 83.488C228.412 83.552 227.948 83.632 227.436 83.728C226.924 83.808 226.404 83.896 225.876 83.992C225.348 84.072 224.836 84.16 224.34 84.256C223.86 84.336 223.436 84.416 223.068 84.496C222.54 84.608 222.068 84.8 221.652 85.072C221.236 85.328 220.876 85.68 220.572 86.128C220.284 86.576 220.052 87.128 219.876 87.784C219.7 88.44 219.596 89.216 219.564 90.112H219.708C219.932 89.808 220.236 89.496 220.62 89.176C221.02 88.856 221.492 88.584 222.036 88.36C222.596 88.136 223.228 88.024 223.932 88.024C225.052 88.024 225.98 88.272 226.716 88.768C227.468 89.248 228.028 89.92 228.396 90.784C228.78 91.648 228.972 92.656 228.972 93.808C228.972 95.232 228.724 96.424 228.228 97.384C227.732 98.344 227.044 99.064 226.164 99.544C225.284 100.008 224.26 100.24 223.092 100.24C222.212 100.24 221.412 100.072 220.692 99.736C219.972 99.384 219.356 98.872 218.844 98.2C218.332 97.528 217.94 96.696 217.668 95.704C217.396 94.712 217.26 93.568 217.26 92.272ZM223.26 98.488C223.964 98.488 224.572 98.344 225.084 98.056C225.612 97.768 226.02 97.296 226.308 96.64C226.596 95.984 226.74 95.112 226.74 94.024C226.74 92.712 226.492 91.68 225.996 90.928C225.516 90.16 224.716 89.776 223.596 89.776C222.892 89.776 222.252 89.936 221.676 90.256C221.1 90.56 220.62 90.912 220.236 91.312C219.852 91.712 219.58 92.048 219.42 92.32C219.42 93.104 219.476 93.864 219.588 94.6C219.7 95.336 219.892 96 220.164 96.592C220.452 97.168 220.844 97.632 221.34 97.984C221.852 98.32 222.492 98.488 223.26 98.488ZM235.371 87.136V92.488H242.355V87.136H244.467V100H242.355V94.264H235.371V100H233.259V87.136H235.371ZM260.685 93.544C260.685 94.616 260.541 95.568 260.253 96.4C259.981 97.216 259.581 97.912 259.053 98.488C258.541 99.064 257.909 99.504 257.157 99.808C256.421 100.096 255.597 100.24 254.685 100.24C253.837 100.24 253.053 100.096 252.333 99.808C251.613 99.504 250.989 99.064 250.461 98.488C249.933 97.912 249.517 97.216 249.213 96.4C248.925 95.568 248.781 94.616 248.781 93.544C248.781 92.12 249.021 90.92 249.501 89.944C249.981 88.952 250.669 88.2 251.565 87.688C252.461 87.16 253.525 86.896 254.757 86.896C255.925 86.896 256.949 87.16 257.829 87.688C258.725 88.2 259.421 88.952 259.917 89.944C260.429 90.92 260.685 92.12 260.685 93.544ZM250.965 93.544C250.965 94.552 251.093 95.432 251.349 96.184C251.621 96.92 252.037 97.488 252.597 97.888C253.157 98.288 253.869 98.488 254.733 98.488C255.597 98.488 256.309 98.288 256.869 97.888C257.429 97.488 257.837 96.92 258.093 96.184C258.365 95.432 258.501 94.552 258.501 93.544C258.501 92.52 258.365 91.648 258.093 90.928C257.821 90.208 257.405 89.656 256.845 89.272C256.301 88.872 255.589 88.672 254.709 88.672C253.397 88.672 252.445 89.104 251.853 89.968C251.261 90.832 250.965 92.024 250.965 93.544ZM268.016 93.736H266.552C266.504 93.736 266.464 93.728 266.432 93.712C266.416 93.696 266.392 93.68 266.36 93.664C266.344 93.632 266.32 93.576 266.288 93.496C266.256 93.4 266.224 93.184 266.192 92.848C266.16 92.496 266.104 91.936 266.024 91.168C265.96 90.4 265.872 89.328 265.76 87.952V85.84C265.76 85.392 265.76 84.952 265.76 84.52C265.76 84.088 265.76 83.648 265.76 83.2C266.112 83.2 266.496 83.2 266.912 83.2C267.328 83.2 267.784 83.2 268.28 83.2C268.328 83.2 268.368 83.216 268.4 83.248C268.448 83.264 268.48 83.288 268.496 83.32C268.528 83.352 268.544 83.4 268.544 83.464V87.952C268.48 88.592 268.416 89.24 268.352 89.896C268.304 90.536 268.248 91.176 268.184 91.816C268.136 92.456 268.08 93.096 268.016 93.736ZM268.76 100.168C268.408 100.168 268.072 100.168 267.752 100.168C267.448 100.168 267.136 100.168 266.816 100.168C266.496 100.168 266.16 100.168 265.808 100.168C265.76 100.168 265.712 100.152 265.664 100.12C265.632 100.104 265.6 100.072 265.568 100.024C265.552 99.992 265.544 99.952 265.544 99.904V96.88C265.896 96.88 266.232 96.88 266.552 96.88C266.872 96.88 267.184 96.88 267.488 96.88C267.808 96.88 268.144 96.88 268.496 96.88C268.56 96.88 268.608 96.896 268.64 96.928C268.672 96.944 268.696 96.968 268.712 97C268.744 97.032 268.76 97.08 268.76 97.144V100.168Z" fill="#FFFDFD" fill-opacity="0.97"/>
<path d="M10.584 1.88L24.408 41.192L38.088 1.88H48.528L29.16 53H19.584L0.143997 1.88H10.584ZM53.7683 53V15.272H63.4163V53H53.7683ZM53.7683 10.016V0.440002H63.4163V10.016H53.7683ZM70.2478 41.84C70.2478 39.392 70.9198 37.256 72.2638 35.432C73.6558 33.56 75.5758 32.12 78.0238 31.112C80.4718 30.104 83.2798 29.6 86.4478 29.6C88.0318 29.6 89.6398 29.72 91.2718 29.96C92.9038 30.2 94.3198 30.584 95.5198 31.112V29.096C95.5198 26.696 94.7998 24.848 93.3598 23.552C91.9678 22.256 89.8798 21.608 87.0958 21.608C85.0318 21.608 83.0638 21.968 81.1918 22.688C79.3198 23.408 77.3518 24.464 75.2878 25.856L72.1918 19.52C74.6878 17.888 77.2318 16.664 79.8238 15.848C82.4638 15.032 85.2238 14.624 88.1038 14.624C93.4798 14.624 97.6558 15.968 100.632 18.656C103.656 21.344 105.168 25.184 105.168 30.176V42.2C105.168 43.208 105.336 43.928 105.672 44.36C106.056 44.792 106.656 45.056 107.472 45.152V53C106.608 53.144 105.816 53.264 105.096 53.36C104.424 53.456 103.848 53.504 103.368 53.504C101.448 53.504 99.9838 53.072 98.9758 52.208C98.0158 51.344 97.4158 50.288 97.1758 49.04L96.9598 47.096C95.3278 49.208 93.2878 50.84 90.8398 51.992C88.3918 53.144 85.8958 53.72 83.3518 53.72C80.8558 53.72 78.5998 53.216 76.5838 52.208C74.6158 51.152 73.0558 49.736 71.9038 47.96C70.7998 46.136 70.2478 44.096 70.2478 41.84ZM93.7198 43.784C94.2478 43.208 94.6798 42.632 95.0158 42.056C95.3518 41.48 95.5198 40.952 95.5198 40.472V36.656C94.3678 36.176 93.1198 35.816 91.7758 35.576C90.4318 35.288 89.1598 35.144 87.9598 35.144C85.4638 35.144 83.3998 35.696 81.7678 36.8C80.1838 37.856 79.3918 39.272 79.3918 41.048C79.3918 42.008 79.6558 42.92 80.1838 43.784C80.7118 44.648 81.4798 45.344 82.4878 45.872C83.4958 46.4 84.6958 46.664 86.0878 46.664C87.5278 46.664 88.9438 46.4 90.3358 45.872C91.7278 45.296 92.8558 44.6 93.7198 43.784ZM129.664 53.216C127.168 53.216 124.864 52.736 122.752 51.776C120.688 50.768 118.888 49.376 117.352 47.6C115.864 45.824 114.712 43.784 113.896 41.48C113.08 39.176 112.672 36.728 112.672 34.136C112.672 31.4 113.104 28.856 113.968 26.504C114.832 24.152 116.032 22.088 117.568 20.312C119.152 18.488 121 17.096 123.112 16.136C125.272 15.128 127.648 14.624 130.24 14.624C133.168 14.624 135.736 15.296 137.944 16.64C140.152 17.936 141.976 19.688 143.416 21.896V15.272H151.84V51.2C151.84 54.944 150.928 58.136 149.104 60.776C147.328 63.464 144.856 65.504 141.688 66.896C138.52 68.336 134.92 69.056 130.888 69.056C126.808 69.056 123.352 68.36 120.52 66.968C117.688 65.624 115.264 63.704 113.248 61.208L118.504 56.096C119.944 57.872 121.744 59.264 123.904 60.272C126.112 61.28 128.44 61.784 130.888 61.784C132.952 61.784 134.824 61.4 136.504 60.632C138.232 59.912 139.6 58.76 140.608 57.176C141.664 55.64 142.192 53.648 142.192 51.2V46.448C140.944 48.608 139.168 50.288 136.864 51.488C134.608 52.64 132.208 53.216 129.664 53.216ZM132.904 45.512C133.96 45.512 134.968 45.344 135.928 45.008C136.888 44.672 137.776 44.216 138.592 43.64C139.408 43.064 140.128 42.392 140.752 41.624C141.376 40.808 141.856 39.992 142.192 39.176V30.176C141.616 28.688 140.8 27.392 139.744 26.288C138.736 25.184 137.584 24.344 136.288 23.768C135.04 23.144 133.72 22.832 132.328 22.832C130.84 22.832 129.496 23.144 128.296 23.768C127.096 24.392 126.064 25.28 125.2 26.432C124.336 27.536 123.664 28.784 123.184 30.176C122.752 31.52 122.536 32.936 122.536 34.424C122.536 35.96 122.8 37.4 123.328 38.744C123.856 40.088 124.576 41.264 125.488 42.272C126.448 43.28 127.552 44.072 128.8 44.648C130.096 45.224 131.464 45.512 132.904 45.512ZM176.016 53.216C173.52 53.216 171.216 52.736 169.104 51.776C167.04 50.768 165.24 49.376 163.704 47.6C162.216 45.824 161.064 43.784 160.248 41.48C159.432 39.176 159.024 36.728 159.024 34.136C159.024 31.4 159.456 28.856 160.32 26.504C161.184 24.152 162.384 22.088 163.92 20.312C165.504 18.488 167.352 17.096 169.464 16.136C171.624 15.128 174 14.624 176.592 14.624C179.52 14.624 182.088 15.296 184.296 16.64C186.504 17.936 188.328 19.688 189.768 21.896V15.272H198.192V51.2C198.192 54.944 197.28 58.136 195.456 60.776C193.68 63.464 191.208 65.504 188.04 66.896C184.872 68.336 181.272 69.056 177.24 69.056C173.16 69.056 169.704 68.36 166.872 66.968C164.04 65.624 161.616 63.704 159.6 61.208L164.856 56.096C166.296 57.872 168.096 59.264 170.256 60.272C172.464 61.28 174.792 61.784 177.24 61.784C179.304 61.784 181.176 61.4 182.856 60.632C184.584 59.912 185.952 58.76 186.96 57.176C188.016 55.64 188.544 53.648 188.544 51.2V46.448C187.296 48.608 185.52 50.288 183.216 51.488C180.96 52.64 178.56 53.216 176.016 53.216ZM179.256 45.512C180.312 45.512 181.32 45.344 182.28 45.008C183.24 44.672 184.128 44.216 184.944 43.64C185.76 43.064 186.48 42.392 187.104 41.624C187.728 40.808 188.208 39.992 188.544 39.176V30.176C187.968 28.688 187.152 27.392 186.096 26.288C185.088 25.184 183.936 24.344 182.64 23.768C181.392 23.144 180.072 22.832 178.68 22.832C177.192 22.832 175.848 23.144 174.648 23.768C173.448 24.392 172.416 25.28 171.552 26.432C170.688 27.536 170.016 28.784 169.536 30.176C169.104 31.52 168.888 32.936 168.888 34.424C168.888 35.96 169.152 37.4 169.68 38.744C170.208 40.088 170.928 41.264 171.84 42.272C172.8 43.28 173.904 44.072 175.152 44.648C176.448 45.224 177.816 45.512 179.256 45.512ZM207.609 53V15.272H217.257V53H207.609ZM207.609 10.016V0.440002H217.257V10.016H207.609ZM244.105 53.72C241.033 53.72 238.273 53.216 235.825 52.208C233.377 51.152 231.289 49.712 229.561 47.888C227.881 46.064 226.585 43.976 225.673 41.624C224.761 39.272 224.305 36.8 224.305 34.208C224.305 31.568 224.761 29.072 225.673 26.72C226.585 24.368 227.881 22.28 229.561 20.456C231.289 18.632 233.377 17.216 235.825 16.208C238.273 15.152 241.033 14.624 244.105 14.624C247.177 14.624 249.913 15.152 252.313 16.208C254.761 17.216 256.849 18.632 258.577 20.456C260.305 22.28 261.601 24.368 262.465 26.72C263.377 29.072 263.833 31.568 263.833 34.208C263.833 36.8 263.377 39.272 262.465 41.624C261.601 43.976 260.305 46.064 258.577 47.888C256.897 49.712 254.833 51.152 252.385 52.208C249.937 53.216 247.177 53.72 244.105 53.72ZM234.241 34.208C234.241 36.416 234.673 38.384 235.537 40.112C236.401 41.792 237.577 43.112 239.065 44.072C240.553 45.032 242.233 45.512 244.105 45.512C245.929 45.512 247.585 45.032 249.073 44.072C250.561 43.064 251.737 41.72 252.601 40.04C253.513 38.312 253.969 36.344 253.969 34.136C253.969 31.976 253.513 30.032 252.601 28.304C251.737 26.576 250.561 25.232 249.073 24.272C247.585 23.312 245.929 22.832 244.105 22.832C242.233 22.832 240.553 23.336 239.065 24.344C237.577 25.304 236.401 26.648 235.537 28.376C234.673 30.056 234.241 32 234.241 34.208Z" fill="white"/>
</svg>
